<?xml version="1.0" encoding="utf-8"?>
<!-- Generator: Adobe Illustrator 25.4.1, SVG Export Plug-In . SVG Version: 6.00 Build 0)  -->
<svg version="1.1" id="Layer_1" xmlns="http://www.w3.org/2000/svg" xmlns:xlink="http://www.w3.org/1999/xlink" x="0px" y="0px"
	 viewBox="0 0 636.7 618.5" style="enable-background:new 0 0 636.7 618.5;" xml:space="preserve">
<style type="text/css">
	.st0{font-family:'AmericanCaptain';}
	.st1{font-size:72px;}
</style>
<path d="M360.6,539l11,19c-15.8,13.3-33.5,25.4-53.2,35.7c-19.7-10.3-37.4-22.4-53.2-35.7l11-19c2.4-4.2,6.9-6.8,11.8-6.8h60.9
	C353.7,532.2,358.1,534.8,360.6,539z M475.3,449.3h161.4v13.6h-167c-2.2,5-4.5,10-7,14.9c-4.3,8.5-9,16.8-14,24.8
	c13.7,11,25.1,22.8,30.1,32.5c14.5,28.1,6.9,59.4-16.2,71.3c-23.1,11.9-53-0.1-67.4-28.2c-1.2-2.3-2.5-4.9-3.9-7.8
	c-20.8,18.4-44.3,34.1-70,46.8l-2.7,1.4l-2.7-1.4c-25.7-12.7-49.2-28.4-70-46.8c-1.4,2.8-2.7,5.4-3.9,7.8
	c-14.5,28.1-44.3,40.1-67.4,28.2s-30.7-43.2-16.2-71.3c5-9.6,16.3-21.5,30.1-32.5c-5-8-9.7-16.3-14-24.8c-2.5-4.9-4.8-9.9-7-14.9H0
	v-13.6h161.4h13.6h10.4h49.2h12H390h12h49.2h10.4L475.3,449.3L475.3,449.3z M455.8,462.9h-10.7c-15.3,31.9-37.1,62.3-65.8,88.4
	l-9.4-16.3c-2.4-4.2-2.4-9.4,0-13.6l30.4-52.7c1.5-2.6,3.8-4.6,6.5-5.7h-15c-0.2,0.6-0.5,1.1-0.8,1.7l-30.4,52.7
	c-2.4,4.2-6.9,6.8-11.8,6.8h-60.9c-4.8,0-9.3-2.6-11.8-6.8l-30.4-52.7c-0.3-0.5-0.6-1.1-0.8-1.7h-15c2.7,1.1,5,3.1,6.5,5.7
	l30.4,52.7c2.4,4.2,2.4,9.4,0,13.6l-9.4,16.3c-28.7-26-50.5-56.5-65.8-88.4h-10.7c5,10.9,10.7,21.6,17.2,32.1
	c14.1,22.8,31.8,44.4,53.1,63.7c19.3,17.5,41.7,33.1,67.1,45.9c25.5-12.9,47.8-28.4,67.1-45.9c21.3-19.3,39-40.9,53.1-63.7
	C445.1,484.6,450.8,473.8,455.8,462.9z"/>
<path d="M359.7,174.2c10.2,3.6,19.9,8,28.9,13.2l-28,48.5c-2.4,4.2-6.9,6.8-11.8,6.8h-60.9c-4.8,0-9.3-2.6-11.8-6.8l-28-48.5
	c9-5.2,18.7-9.7,28.9-13.3c10.2,8.5,23.2,13.3,36.5,13.3h9.6C336.5,187.5,349.5,182.7,359.7,174.2z M636.7,307.2v13.6H622h-47.3
	h-81.4h-12.5h-88.5H244.4h-88.5h-12.5H62H14.7H0v-13.6h21.2c20.5-41.6,60.3-109.8,108.5-128.7c37.7-14.8,70.6-9.7,93.1-1.6
	c14.7-10.4,31-18.6,48.9-24.5c3.1-1,6.3-2,9.5-2.9c-0.2-0.3-0.4-0.7-0.6-1c0-0.1-0.1-0.1-0.1-0.2C240.9,74.8,282,0,318.4,0
	s77.5,74.8,37.8,148.4c0,0.1-0.1,0.1-0.1,0.2c-0.2,0.3-0.4,0.7-0.6,1c3.2,0.9,6.4,1.8,9.5,2.9c17.8,5.9,34.2,14.1,48.9,24.5
	c22.5-8,55.4-13.1,93.1,1.6c48.3,18.9,88,87,108.5,128.7L636.7,307.2L636.7,307.2z M145.2,307.2c0.2-1,0.3-2.1,0.5-3.1
	c2.9-16.8,7.6-32.8,13.9-47.7c-6.5-0.7-13.1-0.5-18.7,1.4c-17.6,6.1-25.5,12.9-39.1,33.1c-2.2,3.3-6.2,5-10.1,4.3
	c-2.3-0.4-4.7-1.1-6.7-2.3c-0.5-0.3-1.2,0.1-1.1,0.7c0.2,2.5-0.3,7.5-5.2,13.8L145.2,307.2L145.2,307.2z M478.9,307.2
	c-0.1-0.3-0.1-0.7-0.2-1c-3-17-7.8-32.9-14.3-47.5c-14.1-32-36.3-57.8-64.7-75.9c-12.9-8.2-27.1-14.8-42.4-19.6
	c-8.8,9.2-21.1,14.7-34.2,14.7h-9.6c-13.1,0-25.4-5.4-34.2-14.7c-15.3,4.9-29.5,11.5-42.5,19.6c-28.4,18.1-50.6,43.9-64.7,75.9
	c-6.5,14.6-11.3,30.5-14.3,47.5c-0.1,0.3-0.1,0.7-0.2,1h9.8c8.9-50,34.4-89.5,72-114.5l27.3,47.2c2.4,4.2,2.4,9.4,0,13.6l-30.4,52.7
	c-0.2,0.3-0.4,0.6-0.6,0.9h11.7l28.6-49.6c2.4-4.2,6.9-6.8,11.8-6.8h60.9c4.8,0,9.3,2.6,11.8,6.8l28.6,49.6h11.7
	c-0.2-0.3-0.4-0.6-0.6-0.9l-30.4-52.7c-2.4-4.2-2.4-9.4,0-13.6l27.3-47.2c37.6,24.9,63.1,64.5,72,114.5L478.9,307.2L478.9,307.2z
	 M558,307.2c-4.8-6.2-5.3-11.3-5.2-13.8c0-0.6-0.6-1-1.1-0.7c-2,1.2-4.4,2-6.7,2.3c-3.9,0.7-7.9-1-10.1-4.3
	c-13.6-20.2-21.5-27-39.1-33.1c-5.6-1.9-12.2-2.1-18.7-1.4c6.3,14.9,11,30.9,14,47.7c0.2,1,0.3,2.1,0.5,3.1L558,307.2L558,307.2z"/>
<text transform="matrix(1 0 0 1 78.723 410.7717)" class="st0 st1">Codingturtles.com</text>
</svg>
