<?xml version="1.0" encoding="UTF-8"?>
<!-- Generator: Adobe Illustrator 26.1.0, SVG Export Plug-In . SVG Version: 6.00 Build 0)  -->
<svg xmlns="http://www.w3.org/2000/svg" xmlns:xlink="http://www.w3.org/1999/xlink" version="1.1" id="Layer_1" x="0px" y="0px" width="636.714px" height="618.541px" viewBox="0 0 636.714 618.541" xml:space="preserve">
<path d="M360.557,539.031l10.998,19.049c-15.798,13.342-33.506,25.403-53.198,35.742c-19.692-10.34-37.401-22.4-53.198-35.742  l10.998-19.05c2.425-4.2,6.906-6.787,11.755-6.787h60.89C353.652,532.244,358.133,534.831,360.557,539.031z M475.291,449.287  h161.423v13.65H469.688c-2.201,5.009-4.537,9.981-7.021,14.904c-4.297,8.515-8.97,16.775-13.978,24.785  c13.729,10.963,25.099,22.839,30.064,32.487c14.477,28.128,6.868,59.384-16.242,71.278c-23.11,11.895-52.969-0.077-67.446-28.204  c-1.203-2.338-2.525-4.944-3.922-7.757c-20.849,18.366-44.316,34.082-70.042,46.758l-2.744,1.352l-2.744-1.352  c-25.725-12.677-49.192-28.392-70.041-46.758c-1.396,2.812-2.718,5.419-3.921,7.756c-14.477,28.128-44.336,40.099-67.446,28.204  c-23.11-11.895-30.719-43.151-16.242-71.278c4.965-9.647,16.335-21.524,30.064-32.486c-5.008-8.011-9.682-16.271-13.979-24.786  c-2.484-4.922-4.82-9.894-7.021-14.903H0v-13.65h161.423h13.635h10.449h49.231h11.994h143.252h11.994h49.23h10.449H475.291z   M455.783,462.937h-10.69c-15.287,31.914-37.104,62.327-65.797,88.373l-9.428-16.329c-2.425-4.2-2.425-9.374,0-13.573l30.445-52.732  c1.512-2.618,3.823-4.609,6.524-5.738h-15.017c-0.234,0.576-0.504,1.141-0.82,1.688l-30.445,52.732  c-2.425,4.2-6.906,6.787-11.755,6.787h-60.89c-4.849,0-9.33-2.587-11.755-6.787l-30.445-52.732c-0.316-0.547-0.586-1.112-0.82-1.688  h-15.017c2.701,1.128,5.013,3.119,6.524,5.738l30.445,52.732c2.425,4.2,2.425,9.374,0,13.573l-9.428,16.33  c-28.693-26.046-50.511-56.459-65.797-88.373h-10.69c5.007,10.889,10.724,21.624,17.199,32.094  c14.128,22.843,31.78,44.437,53.079,63.706c19.348,17.504,41.692,33.095,67.149,45.946c25.457-12.851,47.802-28.442,67.15-45.947  c21.298-19.269,38.951-40.863,53.078-63.706C445.06,484.561,450.777,473.826,455.783,462.937z"></path>
<path d="M359.666,174.198c10.21,3.6,19.856,8.033,28.885,13.25l-27.994,48.487c-2.425,4.2-6.906,6.787-11.755,6.787h-60.89  c-4.849,0-9.33-2.587-11.755-6.787l-27.994-48.487c9.03-5.218,18.678-9.651,28.89-13.252c10.166,8.521,23.16,13.32,36.529,13.32  h9.552C336.505,187.516,349.5,182.718,359.666,174.198z M636.714,307.231v13.65h-14.719h-47.311h-81.399h-12.52h-88.489H244.439  h-88.49h-12.52H62.03H14.718H0v-13.65h21.22c20.506-41.648,60.278-109.78,108.537-128.681c37.723-14.775,70.597-9.659,93.116-1.628  c14.708-10.386,31.027-18.556,48.865-24.483c3.103-1.031,6.261-1.981,9.456-2.877c-0.196-0.338-0.406-0.666-0.592-1.012  c-0.028-0.052-0.055-0.103-0.082-0.153C240.893,74.831,281.997,0,318.357,0s77.464,74.831,37.838,148.397  c-0.027,0.05-0.054,0.101-0.082,0.153c-0.187,0.346-0.396,0.674-0.592,1.012c3.194,0.895,6.352,1.845,9.455,2.876  c17.839,5.928,34.157,14.097,48.865,24.483c22.518-8.031,55.393-13.147,93.116,1.628c48.259,18.902,88.031,87.033,108.537,128.681  H636.714z M145.241,307.231c0.168-1.042,0.328-2.086,0.51-3.124c2.94-16.835,7.649-32.806,13.949-47.702  c-6.537-0.712-13.136-0.547-18.71,1.368c-17.61,6.054-25.488,12.876-39.129,33.102c-2.227,3.301-6.197,4.962-10.12,4.277  c-2.264-0.395-4.704-1.1-6.7-2.347c-0.523-0.327-1.18,0.055-1.142,0.671c0.151,2.501-0.344,7.545-5.176,13.754H145.241z   M478.892,307.231c-0.056-0.328-0.102-0.66-0.159-0.987c-2.976-17.044-7.801-32.921-14.257-47.53  c-14.147-32.011-36.266-57.815-64.714-75.871c-12.903-8.189-27.103-14.786-42.447-19.648c-8.767,9.233-21.055,14.665-34.181,14.665  h-9.552c-13.12,0-25.403-5.427-34.177-14.667c-15.346,4.862-29.548,11.459-42.452,19.649c-28.448,18.056-50.567,43.86-64.714,75.871  c-6.456,14.609-11.28,30.486-14.257,47.529c-0.057,0.327-0.104,0.66-0.159,0.988h9.798c8.894-49.982,34.369-89.541,71.954-114.482  l27.272,47.236c2.425,4.2,2.425,9.374,0,13.573L236.4,306.291c-0.187,0.324-0.391,0.635-0.602,0.94h11.709l28.65-49.623  c2.425-4.2,6.906-6.787,11.755-6.787h60.89c4.849,0,9.33,2.587,11.755,6.787l28.65,49.623h11.709  c-0.211-0.305-0.415-0.616-0.602-0.94l-30.445-52.732c-2.425-4.2-2.425-9.374,0-13.573l27.272-47.236  c37.585,24.941,63.06,64.5,71.954,114.482H478.892z M557.992,307.231c-4.832-6.209-5.327-11.253-5.176-13.754  c0.037-0.616-0.619-0.998-1.142-0.671c-1.996,1.247-4.436,1.952-6.7,2.347c-3.923,0.684-7.893-0.976-10.12-4.277  c-13.642-20.226-21.519-27.048-39.13-33.102c-5.573-1.916-12.173-2.08-18.71-1.368c6.301,14.896,11.01,30.867,13.95,47.703  c0.181,1.038,0.342,2.082,0.51,3.123H557.992z"></path>
<g>
</g>
<g>
</g>
<g>
</g>
<g>
</g>
<g>
</g>
</svg>
